<svg width="16" height="16" viewBox="0 0 16 16" xmlns="http://www.w3.org/2000/svg"><path d="M14.835 10.892l-4.112-.001c-.317 0-.769.202-1.003.414l-1.413 1.286H5.418l-.691-.652c-.215-.227-.646-.357-.962-.357H.872s.171 2.161 1.039 2.161v.716c0 .563.417.868.903.868l6.493-.018c1.6 0 4.217-4.388 4.217-4.388l1.31-.03zM6.67 12.58V9.354v3.226zM2.888 2.655c1.44 4.34-1.436 6.88-1.436 6.88H5.77s2.875-.06 2.3-3.16c-.822-4.077-5.182-3.72-5.182-3.72zm.018 0c1.779.12 10.064-.773 10.064 5.852H8.076l-5.17-5.852zm3.764.152L6.667.682 9.39.681l-.43.682h2.812L6.67 2.807z" stroke-width="1.4" stroke="#404040" fill="none" fill-rule="evenodd" stroke-linecap="round" stroke-linejoin="round"/></svg>
