<svg width="12" height="12" viewBox="0 0 12 12" xmlns="http://www.w3.org/2000/svg" xmlns:xlink="http://www.w3.org/1999/xlink"><defs><path d="M6 5.339L1.567.905A.47.47 0 0 0 .909.91a.463.463 0 0 0-.004.658L5.34 6 .905 10.433a.463.463 0 0 0 .004.658.47.47 0 0 0 .658.004L6 6.66l4.433 4.434c.181.18.48.173.658-.004a.463.463 0 0 0 .004-.658L6.66 6l4.434-4.433a.463.463 0 0 0-.004-.658.47.47 0 0 0-.658-.004L6 5.34z" id="a"/><mask id="b" x="0" y="0" width="10.46" height="10.454" fill="#fff"><use xlink:href="#a"/></mask></defs><use stroke="#979797" mask="url(#b)" stroke-width="2" fill="#D8D8D8" xlink:href="#a" fill-rule="evenodd"/></svg>