<svg width="16" height="16" viewBox="0 0 16 16" xmlns="http://www.w3.org/2000/svg"><g fill="#404040" fill-rule="evenodd"><path d="M.013 1.679v12.64l9.147 1.652V.027L.013 1.679zM5.27 10.66l-.768-2.048-.753 1.94H2.7l1.226-2.707-1.137-2.654h1.078l.694 1.833.827-1.987 1.034-.053-1.293 2.838 1.344 2.93-1.203-.092zM15.65 1.664H9.47v.923h2.326v1.665H9.47v.5h2.326v1.665H9.47v.501h2.326v1.665H9.47v.5h2.326v1.665H9.47v.511h2.326v1.665H9.47v1.068h6.18c.175 0 .318-.15.318-.333V1.997a.327.327 0 0 0-.318-.333zm-.753 11.26h-2.621v-1.665h2.62v1.665zm0-2.176h-2.621V9.083h2.62v1.665zm0-2.165h-2.621V6.918h2.62v1.665zm0-2.166h-2.621V4.753h2.62v1.664zm0-2.165h-2.621V2.587h2.62v1.665z"/></g></svg>
